<svg xmlns="http://www.w3.org/2000/svg" width="52" height="52" viewBox="0 0 52 52" fill="none"><g clip-path="url(#clip0_86_528)"><path d="M26 4.68203C32.9469 4.68203 33.7695 4.7125 36.5016 4.83437C39.0406 4.94609 40.4117 5.37266 41.3258 5.72813C42.5344 6.19531 43.4078 6.76406 44.3117 7.66797C45.2258 8.58203 45.7844 9.44531 46.2516 10.6539C46.607 11.568 47.0336 12.9492 47.1453 15.4781C47.2672 18.2203 47.2977 19.043 47.2977 25.9797C47.2977 32.9266 47.2672 33.7492 47.1453 36.4813C47.0336 39.0203 46.607 40.3914 46.2516 41.3055C45.7844 42.5141 45.2156 43.3875 44.3117 44.2914C43.3977 45.2055 42.5344 45.7641 41.3258 46.2313C40.4117 46.5867 39.0305 47.0133 36.5016 47.125C33.7594 47.2469 32.9367 47.2773 26 47.2773C19.0531 47.2773 18.2305 47.2469 15.4984 47.125C12.9594 47.0133 11.5883 46.5867 10.6742 46.2313C9.46563 45.7641 8.59219 45.1953 7.68828 44.2914C6.77422 43.3773 6.21563 42.5141 5.74844 41.3055C5.39297 40.3914 4.96641 39.0102 4.85469 36.4813C4.73281 33.7391 4.70234 32.9164 4.70234 25.9797C4.70234 19.0328 4.73281 18.2102 4.85469 15.4781C4.96641 12.9391 5.39297 11.568 5.74844 10.6539C6.21563 9.44531 6.78438 8.57188 7.68828 7.66797C8.60234 6.75391 9.46563 6.19531 10.6742 5.72813C11.5883 5.37266 12.9695 4.94609 15.4984 4.83437C18.2305 4.7125 19.0531 4.68203 26 4.68203ZM26 0C18.9414 0 18.0578 0.0304687 15.2852 0.152344C12.5227 0.274219 10.6234 0.721094 8.97813 1.36094C7.26172 2.03125 5.80938 2.91484 4.36719 4.36719C2.91484 5.80938 2.03125 7.26172 1.36094 8.96797C0.721094 10.6234 0.274219 12.5125 0.152344 15.275C0.0304688 18.0578 0 18.9414 0 26C0 33.0586 0.0304688 33.9422 0.152344 36.7148C0.274219 39.4773 0.721094 41.3766 1.36094 43.0219C2.03125 44.7383 2.91484 46.1906 4.36719 47.6328C5.80938 49.075 7.26172 49.9688 8.96797 50.6289C10.6234 51.2688 12.5125 51.7156 15.275 51.8375C18.0477 51.9594 18.9313 51.9898 25.9898 51.9898C33.0484 51.9898 33.932 51.9594 36.7047 51.8375C39.4672 51.7156 41.3664 51.2688 43.0117 50.6289C44.718 49.9688 46.1703 49.075 47.6125 47.6328C49.0547 46.1906 49.9484 44.7383 50.6086 43.032C51.2484 41.3766 51.6953 39.4875 51.8172 36.725C51.9391 33.9523 51.9695 33.0688 51.9695 26.0102C51.9695 18.9516 51.9391 18.068 51.8172 15.2953C51.6953 12.5328 51.2484 10.6336 50.6086 8.98828C49.9688 7.26172 49.0852 5.80938 47.6328 4.36719C46.1906 2.925 44.7383 2.03125 43.032 1.37109C41.3766 0.73125 39.4875 0.284375 36.725 0.1625C33.9422 0.0304688 33.0586 0 26 0Z" fill="#005AE0"></path><path d="M26 12.6445C18.6266 12.6445 12.6445 18.6266 12.6445 26C12.6445 33.3734 18.6266 39.3555 26 39.3555C33.3734 39.3555 39.3555 33.3734 39.3555 26C39.3555 18.6266 33.3734 12.6445 26 12.6445ZM26 34.6633C21.2164 34.6633 17.3367 30.7836 17.3367 26C17.3367 21.2164 21.2164 17.3367 26 17.3367C30.7836 17.3367 34.6633 21.2164 34.6633 26C34.6633 30.7836 30.7836 34.6633 26 34.6633Z" fill="#005AE0"></path><path d="M43.0016 12.1165C43.0016 13.8431 41.6 15.2345 39.8836 15.2345C38.157 15.2345 36.7656 13.8329 36.7656 12.1165C36.7656 10.3899 38.1672 8.99854 39.8836 8.99854C41.6 8.99854 43.0016 10.4001 43.0016 12.1165Z" fill="#005AE0"></path></g><defs><clipPath id="clip0_86_528"><rect width="52" height="52" fill="white"></rect></clipPath></defs></svg>