<svg xmlns="http://www.w3.org/2000/svg" width="58" height="58" viewBox="0 0 58 58" fill="none"><path d="M29.402 43.3092L30.5022 45.5541L30.5022 45.5541L29.402 43.3092ZM28.598 43.3092L27.4978 45.5541L27.4978 45.5541L28.598 43.3092ZM43.4166 21.7502C43.4166 27.2252 40.4547 31.6903 36.8972 35.0752C33.351 38.4493 29.4767 40.4885 28.3018 41.0643L30.5022 45.5541C31.8903 44.8738 36.2733 42.5704 40.3437 38.6975C44.4028 34.8354 48.4166 29.1491 48.4166 21.7502H43.4166ZM29 7.3335C36.9621 7.3335 43.4166 13.7881 43.4166 21.7502H48.4166C48.4166 11.0266 39.7235 2.3335 29 2.3335V7.3335ZM14.5833 21.7502C14.5833 13.7881 21.0379 7.3335 29 7.3335V2.3335C18.2765 2.3335 9.58331 11.0266 9.58331 21.7502H14.5833ZM29.6982 41.0643C28.5233 40.4885 24.6489 38.4493 21.1028 35.0752C17.5453 31.6903 14.5833 27.2252 14.5833 21.7502H9.58331C9.58331 29.1491 13.5971 34.8354 17.6562 38.6975C21.7266 42.5704 26.1096 44.8738 27.4978 45.5541L29.6982 41.0643ZM28.3018 41.0643C28.74 40.8495 29.26 40.8495 29.6982 41.0643L27.4978 45.5541C28.4476 46.0196 29.5523 46.0196 30.5022 45.5541L28.3018 41.0643ZM33.75 21.7502C33.75 24.3735 31.6233 26.5002 29 26.5002V31.5002C34.3848 31.5002 38.75 27.1349 38.75 21.7502H33.75ZM29 17.0002C31.6233 17.0002 33.75 19.1268 33.75 21.7502H38.75C38.75 16.3654 34.3848 12.0002 29 12.0002V17.0002ZM24.25 21.7502C24.25 19.1268 26.3766 17.0002 29 17.0002V12.0002C23.6152 12.0002 19.25 16.3654 19.25 21.7502H24.25ZM29 26.5002C26.3766 26.5002 24.25 24.3735 24.25 21.7502H19.25C19.25 27.1349 23.6152 31.5002 29 31.5002V26.5002Z" fill="#005AE0"></path><path d="M47.8361 42.2915C49.745 43.3936 50.75 44.6439 50.75 45.9165C50.75 47.1891 49.745 48.4394 47.8361 49.5415C45.9271 50.6436 43.1814 51.5589 39.875 52.1952C36.5686 52.8315 32.8179 53.1665 29 53.1665C25.1821 53.1665 21.4314 52.8315 18.125 52.1952C14.8186 51.5589 12.0729 50.6436 10.1639 49.5415C8.25499 48.4394 7.25 47.1891 7.25 45.9165C7.25 44.6439 8.25499 43.3936 10.1639 42.2915" stroke="#005AE0" stroke-width="5" stroke-linecap="round"></path></svg>