<svg xmlns="http://www.w3.org/2000/svg" width="55" height="55" viewBox="0 0 55 55" fill="none"><path d="M4.67963 9.87593L11.8484 2.70711C12.239 2.31658 12.8721 2.31658 13.2627 2.70711L23.404 12.8484C23.7945 13.239 23.7945 13.8721 23.404 14.2627L18.843 18.8237C18.5386 19.128 18.4632 19.593 18.6557 19.978L20.6825 24.0316C22.908 28.4827 26.5173 32.092 30.9684 34.3175L35.022 36.3443C35.407 36.5368 35.872 36.4614 36.1763 36.157L40.7373 31.596C41.1279 31.2055 41.761 31.2055 42.1516 31.596L52.2929 41.7373C52.6834 42.1279 52.6834 42.761 52.2929 43.1516L45.1241 50.3204C43.0127 52.4317 39.6702 52.6693 37.2814 50.8777L20.9619 38.6381C19.2184 37.3304 17.6696 35.7816 16.3619 34.0381L4.12226 17.7186C2.33072 15.3299 2.56827 11.9873 4.67963 9.87593Z" stroke="#005AE0" stroke-width="4"></path></svg>