<svg xmlns="http://www.w3.org/2000/svg" width="57" height="57" viewBox="0 0 57 57" fill="none"><path fill-rule="evenodd" clip-rule="evenodd" d="M8.0836 0H48.0641C52.5102 0 56.1477 3.65461 56.1477 8.12147V48.2893C56.1477 52.7562 52.5102 56.4108 48.0641 56.4108H8.0836C3.63757 56.4108 1.91348e-07 52.7562 1.91348e-07 48.2893V8.12147C-0.000963404 3.65461 3.63757 0 8.0836 0Z" fill="#2C100F"></path><path fill-rule="evenodd" clip-rule="evenodd" d="M28.7392 35.2943H20.5949L19.0464 39.9461H14.1099L22.498 17.2933H26.8053L35.2454 39.9461H30.3041L28.7392 35.2943ZM21.8476 31.5032H27.4866L24.6536 23.0177L21.8476 31.5032ZM41.7728 39.9461H37.2854V23.1233H41.7728V39.9461ZM37.0213 18.7803C37.0213 18.1114 37.243 17.5537 37.693 17.1181C38.142 16.6824 38.7549 16.4646 39.5325 16.4646C40.2937 16.4646 40.9017 16.6824 41.3556 17.1181C41.8104 17.5537 42.0378 18.1114 42.0378 18.7803C42.0378 19.4657 41.8104 20.0282 41.3508 20.4639C40.8911 20.8995 40.2831 21.1173 39.5325 21.1173C38.777 21.1173 38.169 20.8995 37.7093 20.4639C37.2488 20.0282 37.0213 19.4648 37.0213 18.7803Z" fill="#F7991C"></path></svg>