<svg xmlns="http://www.w3.org/2000/svg" width="49" height="57" viewBox="0 0 49 57" fill="none"><path d="M35.1166 6.70406V48.8439C35.1166 53.559 38.3696 56.1864 41.8206 56.1864C45.013 56.1864 48.5247 53.9517 48.5247 48.8439V7.0233C48.5247 2.70078 45.3323 0 41.8206 0C38.309 0 35.1166 2.97852 35.1166 6.70406Z" fill="#F9AB00"></path><path d="M17.5583 28.093V48.8436C17.5583 53.5588 20.8114 56.1862 24.2624 56.1862C27.4548 56.1862 30.9665 53.9515 30.9665 48.8436V28.4122C30.9665 24.0897 27.7741 21.3889 24.2624 21.3889C20.7508 21.3889 17.5583 24.3674 17.5583 28.093Z" fill="#E37400"></path><path d="M6.70412 56.1862C10.4067 56.1862 13.4082 53.1847 13.4082 49.4821C13.4082 45.7796 10.4067 42.7781 6.70412 42.7781C3.00157 42.7781 6.10352e-05 45.7796 6.10352e-05 49.4821C6.10352e-05 53.1847 3.00157 56.1862 6.70412 56.1862Z" fill="#E37400"></path></svg>