<svg xmlns="http://www.w3.org/2000/svg" width="57" height="57" viewBox="0 0 57 57" fill="none"><path fill-rule="evenodd" clip-rule="evenodd" d="M8.23131 0H48.2118C52.6579 0 56.2955 3.65461 56.2955 8.12147V48.2893C56.2955 52.7562 52.6579 56.4108 48.2118 56.4108H8.23131C3.78528 56.4117 0.147705 52.7571 0.147705 48.2893V8.12147C0.147705 3.65461 3.78528 0 8.23131 0Z" fill="#061F34"></path><path fill-rule="evenodd" clip-rule="evenodd" d="M26.5271 24.3344C26.5271 25.3964 26.3527 26.3732 25.9981 27.2707C25.6492 28.1623 25.126 28.9378 24.4332 29.5912C23.7413 30.2447 22.8789 30.7539 21.8488 31.115C20.813 31.481 19.6133 31.662 18.2498 31.662H16.3149V38.1929H12.4779V17.8674H18.4078C19.7241 17.8674 20.8814 18.0107 21.8854 18.2973C22.8953 18.579 23.7404 18.9982 24.4274 19.5452C25.1145 20.097 25.6329 20.7718 25.9923 21.5792C26.3479 22.3808 26.5271 23.2995 26.5271 24.3344ZM22.5311 24.6006C22.5311 24.0643 22.4463 23.5754 22.2776 23.1407C22.1032 22.7002 21.8498 22.3227 21.501 22.0148C21.157 21.707 20.7185 21.4678 20.1905 21.3033C19.6624 21.1387 19.038 21.0535 18.3144 21.0535H16.3168V28.4769H18.4416C19.1026 28.4769 19.6836 28.3869 20.1905 28.2059C20.6983 28.0258 21.1261 27.7654 21.4692 27.4256C21.818 27.08 22.0772 26.6714 22.2622 26.199C22.4414 25.7207 22.5311 25.1892 22.5311 24.6006ZM42.9487 33.5373C42.9487 34.4395 42.7483 35.2101 42.3513 35.8472C41.9552 36.4842 41.4262 36.9992 40.771 37.4029C40.1157 37.8008 39.3757 38.0932 38.5402 38.2742C37.7106 38.4543 36.8597 38.5453 35.9925 38.5453C34.8352 38.5453 33.7936 38.492 32.8637 38.3807C31.9338 38.2742 31.056 38.1154 30.2311 37.9083V34.4996C31.2034 34.9033 32.1709 35.1947 33.1325 35.3757C34.1 35.5567 35.0087 35.6468 35.8653 35.6468C36.8588 35.6468 37.5988 35.487 38.0902 35.1685C38.5817 34.85 38.8245 34.4357 38.8245 33.9264C38.8245 33.6873 38.7715 33.4695 38.6713 33.273C38.5653 33.0764 38.3755 32.8857 38.0902 32.7047C37.805 32.5236 37.4032 32.3387 36.8906 32.147C36.3721 31.9505 35.6957 31.7385 34.8612 31.4994C34.0894 31.2816 33.4081 31.0376 32.8261 30.7617C32.2393 30.4858 31.7584 30.1615 31.3778 29.7897C30.9972 29.4179 30.7062 28.9823 30.5164 28.4886C30.3265 27.9948 30.2311 27.4207 30.2311 26.7576C30.2311 26.1099 30.3738 25.5048 30.6648 24.9366C30.9558 24.3634 31.3836 23.8639 31.9598 23.4341C32.5303 23.0042 33.2443 22.6644 34.1058 22.4146C34.9624 22.1649 35.9607 22.0429 37.1074 22.0429C38.1008 22.0429 38.9787 22.0961 39.7399 22.2026C40.506 22.3091 41.1824 22.4253 41.7692 22.5531V25.6433C40.8702 25.3509 40.03 25.1437 39.2379 25.0276C38.4506 24.9056 37.6682 24.8465 36.8915 24.8465C36.1197 24.8465 35.4962 24.985 35.026 25.2657C34.5558 25.5416 34.3226 25.9347 34.3226 26.4284C34.3226 26.6675 34.3698 26.8796 34.4604 27.0654C34.5558 27.2513 34.7408 27.4314 35.0096 27.6124C35.2842 27.7877 35.6649 27.9735 36.1563 28.1642C36.6477 28.355 37.2982 28.5621 38.1008 28.7906C39.0095 29.051 39.7707 29.3269 40.3942 29.6242C41.0128 29.9214 41.5091 30.2563 41.8849 30.6281C42.2655 30.9998 42.5353 31.4248 42.6991 31.9021C42.8639 32.3794 42.9487 32.9264 42.9487 33.5373Z" fill="#55A0D7"></path></svg>